<?xml version="1.0" encoding="UTF-8"?>
<svg id="Capa_2" data-name="Capa 2" xmlns="http://www.w3.org/2000/svg" viewBox="0 0 302.69 300">
  <defs>
    <style>
      .cls-1 {
        fill: none;
        stroke: #e7670b;
        stroke-miterlimit: 10;
        stroke-width: 5px;
      }

      .cls-2 {
        fill: #e7670b;
      }
    </style>
  </defs>
  <rect class="cls-2" x="107.36" y="112.47" width="58.64" height="17.28" rx="8.48" ry="8.48" transform="translate(-43.32 90.29) rotate(-31.83)"/>
  <rect class="cls-2" x="192.32" y="94.13" width="48.66" height="17.28" rx="7.73" ry="7.73" transform="translate(24.4 -40.54) rotate(11.32)"/>
  <path class="cls-2" d="m157.81,154.55c0,6.64-6.16,10.58-13.89,10.58s-13.99-2.34-13.99-8.98,6.21,2.61,13.94,2.61,13.94-10.85,13.94-4.22Z"/>
  <path class="cls-2" d="m230.03,136.36c.96,4.95-3.07,8.79-8.84,9.91s-10.43-.86-11.38-5.82,4.88,1.77,10.65.66c5.77-1.12,8.62-9.7,9.57-4.75Z"/>
  <path class="cls-2" d="m299.63,195.37c-.86-15.07-26.2-26.67-32.76-28.21-.08-3.21-1.2-9.09-6.19-18.77-8.46-16.39-16.83-24.06-17.98-22.21-.98,1.58,35.71,59.43,17.28,66.11-9.85,3.57-7.23-8.99-18.51-13.57-6.86-2.79-12.9.03-16.59,2.67.79-4.84,1.45-13.43-2.01-20.12-5.38-10.38-23.23-21.87-24.59-19.5-1.32,2.31,13.52,12.17,17.89,18.17,4.23,5.82,6.61,18.16-7.49,20.71-25.15,4.56-32.25-8.07-36.31-5.82-1.09.61,1.92,5.54,3.9,8.53-7.35.95-26.29,4.13-33.16,12.44-8.6,10.4-11.9,33.9-28.73,29.09-12.34-3.53-15.69-36.49-22.21-52-6.13-14.57,9.7-35.62,2.29-49.01-5.46-9.87-19.21,9.02-19.21-6.52,0-13.04,17.8-25.03,35.26-27.15,17.45-2.12,17.45,10.22,37.97,4.58,17.33-4.77,28.39-17.4,32.16-22.32,7.06-.05,23.71-.68,34.41-5.36,15.34-6.7,35.26-35.08,18.51-55.88-17.82-22.14-62.35,7.87-77.04,18.77.14-7.95-2.45-21.37-20.97-23.7-27.75-3.49-87.26,50.41-98.87,65.81-9.29-1.03-33.2-2.59-35.91,8.31-2.59,10.44,8.09,15.45,12.66,17.09-4.42,2.42-14.05,8.92-10.09,17.82,5.38,12.08,18.69,7.14,18.69,7.14l5.35,26.51c-7.01,1.34-25.01,7.64-25.01,37.13,0,25.73,15.6,36.14,31.91,36.14,13,0,19.7-9.52,17.19-12.96-.65-.89-8.98,4.08-16.04,4.08-16.89,0-22.35-12.24-22.62-26.62-.44-23.45,17.42-27.21,25.44-27.56,8.02-.35,19.04,6.38,23.22,16.54,1.78,4.33,5.66,14.92,4.98,18.92-2.08,12.24-11.11,15.16-9.52,23,1.03,5.12,7.66,8.03,12.15,9.44-5.26,8.02-15.5,27.2-3.1,40.09,12.35,12.85,29.49,8.88,36.68,6.4,1.15,5.48,5.85,18.33,24.87,22.38,19.79,4.22,51.04-11,62.17-16.91,9.73,5.67,37.1,19.3,59.37,8.05,22.02-11.11,21.75-34.11,20.74-42.95,6-.32,15.78-2.1,21.04-9.93,6.22-9.26,2.3-20.64.33-25.12,3.52-1.55,8.97-5.31,8.49-13.75Zm-91.03,30.11c-15.13,1.29-48.09,18.3-44.69-1.03,3.94-22.38,21.05-22.7,41.82-23.04s33.35-10.27,38.13,14.21c2.93,14.98-11.88,7.87-35.26,9.87Z"/>
  <path class="cls-2" d="m138.96,177.52c-.98,4.89-5.07,8.19-9.13,7.37s-6.57-5.44-5.59-10.32,10.37-13.55,10.37-13.55c0,0,5.33,11.62,4.35,16.5Z"/>
  <path class="cls-2" d="m240.32,142.07c2.92,2.31,3.73,6.14,1.81,8.57-1.92,2.43-5.84,2.53-8.76.22s-5.5-11.49-5.5-11.49c0,0,9.53.39,12.45,2.7Z"/>
  <path class="cls-1" d="m160.9,221.27s49.84-15.75,69.83,9.28"/>
</svg>