<?xml version="1.0" encoding="UTF-8"?>
<svg id="Capa_2" data-name="Capa 2" xmlns="http://www.w3.org/2000/svg" viewBox="0 0 600 242.5">
  <defs>
    <style>
      .cls-1 {
        fill: #044147;
      }
    </style>
  </defs>
  <g>
    <rect class="cls-1" x="89.1" y="91.4" width="47.35" height="13.95" rx="6.85" ry="6.85" transform="translate(-12.79 16.95) rotate(-8.14)"/>
    <rect class="cls-1" x="154.49" y="74" width="39.29" height="13.95" rx="6.25" ry="6.25" transform="translate(-17.88 84.43) rotate(-25.97)"/>
    <path class="cls-1" d="m127.15,125.46c0,5.36-4.98,8.54-11.21,8.54s-11.29-1.89-11.29-7.25,5.06-12.16,11.29-12.16,11.21,5.5,11.21,10.86Z"/>
    <path class="cls-1" d="m185.46,110.78c.77,4-2.48,7.1-7.14,8s-8.42-.7-9.19-4.7,1.73-8.89,6.39-9.79,9.17,2.49,9.94,6.49Z"/>
    <path class="cls-1" d="m241.67,158.42c-.69-12.17-21.16-21.54-26.45-22.78-.07-2.59-.97-7.34-5-15.16-6.83-13.24-13.59-19.43-14.52-17.93-.79,1.28,28.84,47.98,13.95,53.38-7.95,2.88-5.84-7.26-14.95-10.96-5.54-2.25-10.42.03-13.39,2.15.64-3.91,1.17-10.84-1.62-16.25-4.34-8.38-18.76-17.66-19.86-15.74-1.07,1.86,10.92,9.82,14.45,14.67,3.42,4.7,5.34,14.66-6.05,16.72-20.31,3.68-26.04-6.52-29.32-4.7-.88.49,1.55,4.47,3.15,6.89-5.93.77-21.23,3.34-26.78,10.05-6.94,8.4-9.61,27.37-23.2,23.49-9.96-2.85-12.67-29.46-17.93-41.99-4.95-11.77,7.84-28.76,1.85-39.57-4.41-7.97-15.52,7.28-15.52-5.27,0-10.53,14.38-20.21,28.47-21.92,14.09-1.71,14.09,8.26,30.65,3.7,14-3.85,22.92-14.05,25.96-18.02,5.7-.04,19.14-.55,27.79-4.33,12.38-5.41,28.47-28.33,14.95-45.12-14.39-17.88-50.34,6.35-62.21,15.15.11-6.42-1.98-17.26-16.93-19.14C86.74,2.94,38.69,46.46,29.32,58.9c-7.5-.83-26.81-2.09-28.99,6.71-2.09,8.43,6.53,12.48,10.22,13.8-3.57,1.96-11.34,7.2-8.14,14.39,4.34,9.75,15.09,5.76,15.09,5.76l4.32,21.4c-5.66,1.08-20.19,6.17-20.19,29.98,0,20.77,12.6,29.18,25.76,29.18,10.5,0,15.91-7.68,13.88-10.46-.52-.72-7.25,3.3-12.95,3.3-13.64,0-18.05-9.88-18.27-21.49-.36-18.93,14.07-21.97,20.54-22.25,6.48-.28,15.37,5.15,18.75,13.35,1.44,3.5,4.57,12.04,4.02,15.28-1.68,9.88-8.97,12.24-7.69,18.58.84,4.13,6.19,6.48,9.81,7.62-4.25,6.47-12.51,21.96-2.51,32.37,9.98,10.38,23.81,7.17,29.62,5.16.93,4.43,4.72,14.8,20.08,18.07,15.98,3.4,41.21-8.88,50.2-13.65,7.85,4.58,29.96,15.58,47.94,6.5,17.78-8.97,17.56-27.54,16.75-34.68,4.85-.26,12.74-1.7,16.99-8.02,5.02-7.48,1.86-16.67.26-20.28,2.85-1.25,7.24-4.29,6.85-11.11Zm-77.1,30.77c-12.21,1.04-32.76-.47-32.74-16.32.02-17.32,15.97-9.18,32.74-9.01,19.55.19,29.7-17.43,30.37,3.02-1.33,12.25-11.48,20.7-30.37,22.31Z"/>
    <path class="cls-1" d="m141.27,173.72s1.38,3.7,5.36,3.89,6.59-6.64,6.59-6.64c0,0,9.92-.33,16.61-.85,6.69-.52,14.99-3.27,14.99-1.33s-7.83,5.84-13.14,6.26c-4.64.37-15.51.85-15.51.85,0,0-6.45,6.55-9.01,6.55s-6.97-4.6-5.88-8.73Z"/>
  </g>
  <g>
    <path class="cls-1" d="m285.44,107.05c-3.64,0-6.52-1-8.64-3.01-2.12-2-3.18-4.94-3.18-8.8v-15.71c0-7.87,1.19-13.85,3.57-17.94,2.38-4.08,5.39-7.02,9.03-8.8l-.56-2.12h-1.89c-3.42,0-6.11-1.09-8.08-3.29-1.97-2.19-2.99-5.18-3.06-8.97-.07-3.71.91-6.69,2.95-8.91,2.04-2.23,4.77-3.34,8.19-3.34h39c7.95,0,11.92,3.72,11.92,11.14,0,3.34-.97,6.02-2.9,8.02-1.93,2.01-4.94,3.01-9.03,3.01h-21.73c-2.75,0-4.12,1.6-4.12,4.79v8.02c3.49-.96,7.13-2.08,10.92-3.34,3.79-1.26,7.43-1.89,10.92-1.89,3.71,0,6.59.91,8.64,2.73,2.04,1.82,3.06,4.59,3.06,8.3s-1.02,6.37-3.06,8.19c-2.04,1.82-4.92,2.77-8.64,2.84-3.49.07-7.15-.5-10.98-1.73-3.83-1.23-7.49-2.32-10.98-3.29l-.11,22.29c0,3.86-1.02,6.8-3.06,8.8-2.04,2.01-4.77,3.01-8.19,3.01Z"/>
    <path class="cls-1" d="m347.84,107.05c-5.5,0-9.79-1.49-12.87-4.46-3.08-2.97-4.62-7.13-4.62-12.48s1.78-9.23,5.35-11.64c3.57-2.41,8.13-3.62,13.71-3.62,3.27,0,6.24.22,8.91.67,2.67.44,5.09,1.08,7.24,1.89h.33v-1.67c0-1.71-.63-3.06-1.89-4.07-1.26-1-2.86-1.46-4.79-1.39-1.86,0-3.44.11-4.74.33-1.3.22-2.92.6-4.85,1.11-3.57.89-6.65.82-9.25-.22-2.6-1.04-4.38-3.08-5.35-6.13-.89-3.19-.69-5.87.61-8.02,1.3-2.15,3.29-3.82,5.96-5.02,2.3-1.11,4.88-2.04,7.74-2.79,2.86-.74,5.96-1.11,9.3-1.11,9.73,0,16.88,2.36,21.45,7.08,4.57,4.72,6.85,12.61,6.85,23.68v17.27c0,3.05-.93,5.57-2.79,7.58-1.86,2.01-4.42,3.01-7.69,3.01-3.57,0-6.22-1-7.97-3.01-1.75-2-2.62-4.46-2.62-7.35v-2.56h-2.23c0,1.93-.35,3.9-1.06,5.91-.71,2.01-2.16,3.68-4.35,5.01-2.19,1.34-5.67,2.01-10.42,2.01Zm1.11-24.4c0,1.26.46,2.15,1.39,2.67.93.52,2.95.78,6.07.78,2.82,0,4.79-.26,5.91-.78,1.11-.52,1.67-1.41,1.67-2.67,0-1.19-.56-2.02-1.67-2.51-1.11-.48-3.08-.72-5.91-.72-3.12,0-5.15.24-6.07.72-.93.48-1.39,1.32-1.39,2.51Z"/>
    <path class="cls-1" d="m431.41,107.05c-3.72,0-6.7-.78-8.97-2.34-2.27-1.56-3.92-3.62-4.96-6.18-1.04-2.56-1.63-5.33-1.78-8.3h-2.12v6.24c0,3.05-.93,5.57-2.79,7.58-1.86,2.01-4.42,3.01-7.69,3.01s-6-1-7.74-3.01c-1.75-2-2.62-4.53-2.62-7.58V32.29c0-3.19.85-5.85,2.56-7.97,1.71-2.12,4.31-3.17,7.8-3.17s6.11,1.06,7.86,3.17c1.74,2.12,2.62,4.7,2.62,7.75v33.76l.45.11c.74-3.12,1.69-5.98,2.84-8.58,1.15-2.6,2.88-4.68,5.18-6.24,2.3-1.56,5.5-2.34,9.58-2.34,6.31,0,11.14,2.58,14.49,7.74,3.34,5.16,5.01,12.05,5.01,20.67,0,9.88-1.69,17.33-5.07,22.34-3.38,5.02-8.26,7.52-14.65,7.52Zm-18.05-30.75c0,.37.02.73.06,1.06.04.33.09.69.17,1.06.37,1.56,1.28,2.73,2.73,3.51s3.73,1.17,6.85,1.17c3.71,0,6.26-.56,7.63-1.67,1.37-1.11,2.06-2.82,2.06-5.13s-.67-4.12-2.01-5.24-3.86-1.67-7.58-1.67c-3.2,0-5.52.39-6.96,1.17-1.45.78-2.36,1.99-2.73,3.62-.07.3-.13.61-.17.95-.04.33-.06.72-.06,1.17Z"/>
    <path class="cls-1" d="m455.7,35.85c0-3.19.98-5.78,2.95-7.74,1.97-1.97,4.7-2.95,8.19-2.95,3.71,0,6.48.97,8.3,2.9,1.82,1.93,2.73,4.5,2.73,7.69s-.91,5.63-2.73,7.52c-1.82,1.89-4.59,2.84-8.3,2.84s-6.41-.95-8.3-2.84c-1.89-1.89-2.84-4.36-2.84-7.41Zm11.14,71.2c-3.49,0-6.09-.96-7.8-2.9-1.71-1.93-2.56-4.35-2.56-7.24v-38.11c0-3.19.85-5.72,2.56-7.58,1.71-1.86,4.31-2.79,7.8-2.79s6.11.93,7.86,2.79c1.74,1.86,2.62,4.31,2.62,7.35v38.33c0,2.9-.91,5.31-2.73,7.24-1.82,1.93-4.4,2.9-7.74,2.9Z"/>
    <path class="cls-1" d="m499.94,107.05c-5.5,0-9.79-1.49-12.87-4.46-3.08-2.97-4.62-7.13-4.62-12.48s1.78-9.23,5.35-11.64c3.57-2.41,8.13-3.62,13.71-3.62,3.27,0,6.24.22,8.91.67,2.67.44,5.09,1.08,7.24,1.89h.33v-1.67c0-1.71-.63-3.06-1.89-4.07-1.26-1-2.86-1.46-4.79-1.39-1.86,0-3.44.11-4.74.33-1.3.22-2.92.6-4.85,1.11-3.57.89-6.65.82-9.25-.22-2.6-1.04-4.38-3.08-5.35-6.13-.89-3.19-.69-5.87.61-8.02,1.3-2.15,3.29-3.82,5.96-5.02,2.3-1.11,4.88-2.04,7.74-2.79,2.86-.74,5.96-1.11,9.3-1.11,9.73,0,16.88,2.36,21.45,7.08,4.57,4.72,6.85,12.61,6.85,23.68v17.27c0,3.05-.93,5.57-2.79,7.58-1.86,2.01-4.42,3.01-7.69,3.01-3.57,0-6.22-1-7.97-3.01-1.75-2-2.62-4.46-2.62-7.35v-2.56h-2.23c0,1.93-.35,3.9-1.06,5.91-.71,2.01-2.16,3.68-4.35,5.01-2.19,1.34-5.67,2.01-10.42,2.01Zm3.12-75.22c2.08-1.26,4.16-2.47,6.24-3.62,2.08-1.15,4.49-2.51,7.24-4.07,2.82-1.56,5.53-2.1,8.13-1.62,2.6.48,4.49,2.1,5.68,4.85,1.26,2.75,1.45,5.22.56,7.41-.89,2.19-2.86,3.92-5.91,5.18-2.67,1.11-5.67,2.16-8.97,3.12-3.31.97-6.11,1.63-8.41,2-1.78.3-3.45.13-5.01-.5s-2.71-1.91-3.45-3.84c-.67-1.93-.63-3.64.11-5.13.74-1.49,2.01-2.75,3.79-3.79Zm-2.01,50.81c0,1.26.46,2.15,1.39,2.67.93.52,2.95.78,6.07.78,2.82,0,4.79-.26,5.91-.78,1.11-.52,1.67-1.41,1.67-2.67,0-1.19-.56-2.02-1.67-2.51-1.11-.48-3.08-.72-5.91-.72-3.12,0-5.15.24-6.07.72-.93.48-1.39,1.32-1.39,2.51Z"/>
    <path class="cls-1" d="m555.65,107.05c-3.27,0-5.89-.98-7.86-2.95-1.97-1.97-2.95-4.4-2.95-7.3v-36.88c0-3.12.93-5.76,2.79-7.91,1.86-2.15,4.53-3.23,8.02-3.23s6.02,1.08,7.8,3.23,2.67,4.87,2.67,8.13v5.57h2.01c0-4.23.76-7.58,2.28-10.03,1.52-2.45,3.47-4.22,5.85-5.29,2.38-1.08,4.75-1.62,7.13-1.62,5.72,0,9.92,2.06,12.59,6.18s4.01,9.97,4.01,17.55v24.29c0,2.9-.97,5.33-2.9,7.3-1.93,1.97-4.53,2.95-7.8,2.95s-6-.98-7.97-2.95c-1.97-1.97-2.95-4.4-2.95-7.3v-19.72c0-2.68-.5-4.75-1.5-6.24-1-1.49-2.47-2.23-4.4-2.23-2.23,0-3.84.82-4.85,2.45-1,1.63-1.5,3.71-1.5,6.24v19.5c0,2.9-.93,5.33-2.79,7.3-1.86,1.97-4.42,2.95-7.69,2.95Z"/>
  </g>
  <g>
    <path class="cls-1" d="m302.04,135.31c8.64,0,15.71,1.62,21.19,4.85,5.48,3.23,9.55,7.81,12.2,13.73,2.65,5.92,3.98,12.95,3.98,21.08,0,13.66-2.94,23.68-8.82,30.07-5.88,6.39-14.89,9.59-27.02,9.59h-4.79c-3.56,0-6.86-.36-9.91-1.09-3.05-.72-5.74-2.05-8.06-3.98-2.33-1.92-4.14-4.63-5.45-8.12-1.31-3.49-1.96-7.99-1.96-13.51,0-5.16.71-9.62,2.12-13.4,1.42-3.78,3.11-6.79,5.07-9.04,1.96-2.25,3.74-3.63,5.34-4.14l-.54-2.07h-1.85c-3.34,0-5.97-1.07-7.9-3.21-1.93-2.14-2.92-5.03-3-8.66-.07-3.63.89-6.55,2.89-8.77,2-2.21,4.67-3.32,8.01-3.32h18.52Zm-7.84,51.21c0,1.53.34,2.58,1.03,3.16.69.58,1.72.87,3.11.87h5.88c3.7,0,6.57-.8,8.61-2.4,2.03-1.6,3.47-3.65,4.3-6.15.83-2.51,1.25-5.17,1.25-8.01s-.42-5.56-1.25-8.17c-.84-2.61-2.27-4.76-4.3-6.43-2.03-1.67-4.9-2.51-8.61-2.51h-5.88c-1.38,0-2.42.31-3.11.93-.69.62-1.03,1.73-1.03,3.32v25.39Z"/>
    <path class="cls-1" d="m343.55,186.3c0-5.74,1.14-10.79,3.43-15.14,2.29-4.36,5.56-7.77,9.81-10.24,4.25-2.47,9.31-3.7,15.2-3.7,4.58,0,8.7.84,12.36,2.51,3.67,1.67,6.55,3.91,8.66,6.7,2.11,2.8,3.16,5.87,3.16,9.21s-1.02,5.96-3.05,7.41c-2.03,1.45-5.05,2.18-9.04,2.18h-22.88c0,1.89.74,3.45,2.23,4.68,1.49,1.24,4.01,1.85,7.57,1.85,1.81,0,3.5-.18,5.07-.55,1.56-.36,3.16-.71,4.79-1.03,1.63-.33,3.47-.49,5.5-.49,2.9,0,5.3,1.04,7.19,3.11,1.89,2.07,2.83,4.92,2.83,8.55,0,4.29-2.2,7.63-6.59,10.02-4.4,2.4-10.15,3.6-17.27,3.6-5.01,0-9.71-.98-14.11-2.94-4.39-1.96-7.97-5.07-10.73-9.31-2.76-4.25-4.14-9.71-4.14-16.4Zm35.3-4.69c1.09,0,1.45-.51,1.09-1.53-.29-1.02-1.16-2.07-2.61-3.16-1.45-1.09-3.56-1.63-6.32-1.63-3.2,0-5.57.69-7.14,2.07-1.56,1.38-2.34,2.8-2.34,4.25h17.32Z"/>
    <path class="cls-1" d="m428.74,216.04c-5.01,0-9.64-.49-13.89-1.47s-7.64-2.54-10.19-4.69c-2.54-2.14-3.81-4.99-3.81-8.55,0-3.12.94-5.7,2.83-7.74,1.89-2.03,4.39-3.05,7.52-3.05,1.96,0,3.94.31,5.94.93,2,.62,4.12,1.22,6.37,1.8,2.25.58,4.68.87,7.3.87,2.32,0,3.88-.13,4.68-.38.8-.25,1.2-.74,1.2-1.47,0-.87-.49-1.45-1.47-1.74-.98-.29-2.63-.65-4.96-1.09l-7.84-1.52c-3.27-.65-6.45-1.51-9.53-2.56-3.09-1.05-5.63-2.63-7.63-4.74-2-2.11-3-4.97-3-8.61,0-4.94,2.2-8.79,6.59-11.55,4.39-2.76,10.77-4.14,19.12-4.14,4.79,0,9.1.47,12.91,1.42,3.81.94,6.84,2.34,9.1,4.19,2.25,1.85,3.38,4.16,3.38,6.92.07,2.98-.73,5.38-2.4,7.19-1.67,1.82-3.78,2.72-6.32,2.72-1.82,0-3.65-.23-5.5-.71-1.85-.47-3.85-.98-5.99-1.53-2.14-.55-4.59-.85-7.35-.93-1.96-.14-3.56-.04-4.79.33-1.24.36-1.85.95-1.85,1.74,0,.87.73,1.47,2.18,1.8,1.45.33,3.63.74,6.54,1.25l7.73,1.42c4.72.8,8.48,1.8,11.28,3,2.79,1.2,4.81,2.85,6.05,4.96,1.23,2.11,1.85,5.01,1.85,8.72s-1.11,7.06-3.32,9.64c-2.22,2.58-5.28,4.48-9.21,5.72-3.92,1.23-8.43,1.85-13.51,1.85Z"/>
    <path class="cls-1" d="m458.59,145.01c0-3.12.96-5.65,2.89-7.57,1.92-1.92,4.59-2.89,8.01-2.89,3.63,0,6.34.94,8.12,2.83,1.78,1.89,2.67,4.4,2.67,7.52s-.89,5.5-2.67,7.35c-1.78,1.85-4.49,2.78-8.12,2.78s-6.26-.93-8.12-2.78c-1.85-1.85-2.78-4.27-2.78-7.25Zm10.89,69.62c-3.41,0-5.96-.94-7.63-2.83-1.67-1.89-2.51-4.25-2.51-7.08v-37.26c0-3.12.83-5.59,2.51-7.41,1.67-1.81,4.21-2.72,7.63-2.72s5.97.91,7.68,2.72c1.71,1.82,2.56,4.21,2.56,7.19v37.48c0,2.83-.89,5.19-2.67,7.08-1.78,1.89-4.3,2.83-7.57,2.83Z"/>
    <path class="cls-1" d="m511.1,237.07c-4.43,0-8.19-.47-11.28-1.42-3.09-.95-6.05-2.4-8.88-4.36-2.47-1.74-4.21-4.18-5.23-7.3-1.02-3.12-.51-6.28,1.52-9.48,1.31-1.96,2.78-3.3,4.41-4.03,1.63-.72,3.23-1.03,4.79-.93,1.56.11,2.92.45,4.09,1.03,2.54,1.24,4.52,2.12,5.94,2.67s3.03.82,4.85.82c2.69,0,4.96-.94,6.81-2.83,1.85-1.89,2.78-4.54,2.78-7.95v-8.82h-1.96c-.51,3.85-1.98,6.88-4.41,9.1-2.43,2.22-5.76,3.32-9.97,3.32-3.2,0-6.32-.8-9.37-2.4-3.05-1.6-5.56-4.14-7.52-7.63s-2.94-8.1-2.94-13.84c0-8.42,1.85-14.71,5.56-18.85,3.7-4.14,8.5-6.21,14.38-6.21,4.07,0,7.55,1.36,10.46,4.09,2.9,2.72,4.36,6.52,4.36,11.38l.33-.11v-6.1c0-2.54.82-4.78,2.45-6.7s4.19-2.89,7.68-2.89c3.7,0,6.37.96,8.01,2.89s2.45,4.16,2.45,6.7l.11,34.32c.07,7.55-.85,13.98-2.78,19.28-1.93,5.3-5.05,9.33-9.37,12.09-4.32,2.76-10.08,4.14-17.27,4.14Zm-8.06-55.89c0,3.92,2.61,5.88,7.84,5.88,3.41,0,5.81-.47,7.19-1.42,1.38-.94,2.07-2.43,2.07-4.47s-.71-3.56-2.12-4.36-3.83-1.2-7.24-1.2c-2.47,0-4.38.4-5.72,1.2-1.34.8-2.02,2.25-2.02,4.36Z"/>
    <path class="cls-1" d="m556.64,214.63c-3.2,0-5.76-.96-7.68-2.89-1.93-1.92-2.89-4.3-2.89-7.14v-36.06c0-3.05.91-5.63,2.72-7.73,1.81-2.11,4.43-3.16,7.84-3.16s5.88,1.05,7.63,3.16,2.61,4.76,2.61,7.95v5.45h1.96c0-4.14.74-7.41,2.23-9.81,1.49-2.4,3.39-4.12,5.72-5.17,2.32-1.05,4.65-1.58,6.97-1.58,5.59,0,9.7,2.01,12.31,6.05s3.92,9.75,3.92,17.16v23.75c0,2.83-.94,5.21-2.83,7.14-1.89,1.93-4.43,2.89-7.63,2.89s-5.87-.96-7.79-2.89c-1.93-1.92-2.89-4.3-2.89-7.14v-19.28c0-2.62-.49-4.65-1.47-6.1-.98-1.45-2.42-2.18-4.3-2.18-2.18,0-3.76.8-4.74,2.4-.98,1.6-1.47,3.63-1.47,6.1v19.07c0,2.83-.91,5.21-2.72,7.14-1.82,1.93-4.32,2.89-7.52,2.89Z"/>
  </g>
</svg>