<?xml version="1.0" encoding="UTF-8"?>
<svg id="Capa_2" data-name="Capa 2" xmlns="http://www.w3.org/2000/svg" viewBox="0 0 787.78 145.77">
  <defs>
    <style>
      .cls-1 {
        fill: #044147;
      }
    </style>
  </defs>
  <g>
    <rect class="cls-1" x="52.95" y="53.46" width="27.91" height="8.22" rx="4.04" ry="4.04" transform="translate(-7.47 10.05) rotate(-8.14)"/>
    <rect class="cls-1" x="91.48" y="43.2" width="23.15" height="8.22" rx="3.68" ry="3.68" transform="translate(-10.31 49.91) rotate(-25.97)"/>
    <path class="cls-1" d="m75.37,73.53c0,3.16-2.93,5.04-6.61,5.04s-6.66-1.11-6.66-4.27,2.98-7.16,6.66-7.16,6.61,3.24,6.61,6.4Z"/>
    <path class="cls-1" d="m109.74,64.88c.46,2.36-1.46,4.18-4.21,4.71s-4.96-.41-5.42-2.77,1.02-5.24,3.77-5.77,5.4,1.47,5.86,3.82Z"/>
    <path class="cls-1" d="m142.87,92.96c-.41-7.17-12.47-12.69-15.59-13.42-.04-1.53-.57-4.32-2.95-8.93-4.03-7.8-8.01-11.45-8.56-10.57-.47.75,16.99,28.28,8.22,31.46-4.69,1.7-3.44-4.28-8.81-6.46-3.26-1.33-6.14.01-7.89,1.27.38-2.31.69-6.39-.96-9.57-2.56-4.94-11.06-10.41-11.7-9.28-.63,1.1,6.44,5.79,8.51,8.65,2.01,2.77,3.15,8.64-3.57,9.86-11.97,2.17-15.35-3.84-17.28-2.77-.52.29.91,2.63,1.85,4.06-3.5.45-12.51,1.97-15.78,5.92-4.09,4.95-5.66,16.13-13.67,13.84-5.87-1.68-7.47-17.37-10.57-24.75-2.92-6.93,4.62-16.95,1.09-23.32-2.6-4.7-9.14,4.29-9.14-3.1,0-6.21,8.47-11.91,16.78-12.92,8.31-1.01,8.31,4.87,18.07,2.18,8.25-2.27,13.51-8.28,15.3-10.62,3.36-.02,11.28-.32,16.38-2.55,7.3-3.19,16.78-16.69,8.81-26.59-8.48-10.54-29.67,3.74-36.66,8.93.07-3.78-1.17-10.17-9.98-11.28-13.21-1.66-41.53,23.99-47.05,31.32-4.42-.49-15.8-1.23-17.09,3.95-1.23,4.97,3.85,7.35,6.02,8.13-2.1,1.15-6.69,4.24-4.8,8.48,2.56,5.75,8.89,3.4,8.89,3.4l2.55,12.62c-3.34.64-11.9,3.64-11.9,17.67,0,12.24,7.42,17.2,15.18,17.2,6.19,0,9.38-4.53,8.18-6.17-.31-.42-4.27,1.94-7.63,1.94-8.04,0-10.64-5.83-10.77-12.67-.21-11.16,8.29-12.95,12.11-13.11s9.06,3.03,11.05,7.87c.85,2.06,2.69,7.1,2.37,9.01-.99,5.82-5.29,7.21-4.53,10.95.49,2.43,3.65,3.82,5.78,4.49-2.5,3.82-7.37,12.94-1.48,19.08,5.88,6.12,14.03,4.23,17.46,3.04.55,2.61,2.78,8.72,11.84,10.65,9.42,2.01,24.29-5.23,29.59-8.05,4.63,2.7,17.66,9.18,28.25,3.83,10.48-5.29,10.35-16.23,9.87-20.44,2.86-.15,7.51-1,10.01-4.73,2.96-4.41,1.1-9.82.15-11.95,1.68-.74,4.27-2.53,4.04-6.54Zm-45.44,18.13c-7.2.62-19.31-.28-19.29-9.62.01-10.21,9.41-5.41,19.29-5.31,11.52.11,17.5-10.27,17.9,1.78-.78,7.22-6.77,12.2-17.9,13.15Z"/>
    <path class="cls-1" d="m83.69,101.97s.81,2.18,3.16,2.29,3.89-3.91,3.89-3.91c0,0,5.84-.2,9.79-.5,3.94-.31,8.84-1.93,8.84-.78s-4.61,3.44-7.75,3.69c-2.73.22-9.14.5-9.14.5,0,0-3.8,3.86-5.31,3.86s-4.11-2.71-3.47-5.15Z"/>
  </g>
  <g>
    <path class="cls-1" d="m178.76,119.09c-3.18,0-5.69-.88-7.54-2.63-1.85-1.75-2.77-4.31-2.77-7.69v-13.72c0-6.88,1.04-12.1,3.11-15.67,2.08-3.57,4.7-6.13,7.88-7.69l-.49-1.85h-1.66c-2.99,0-5.34-.96-7.06-2.87-1.72-1.91-2.61-4.53-2.68-7.84-.07-3.24.79-5.84,2.58-7.79,1.78-1.95,4.17-2.92,7.15-2.92h34.07c6.94,0,10.42,3.25,10.42,9.73,0,2.92-.84,5.26-2.53,7.01-1.69,1.75-4.32,2.63-7.88,2.63h-18.98c-2.4,0-3.6,1.4-3.6,4.19v7.01c3.05-.84,6.23-1.82,9.54-2.92,3.31-1.1,6.49-1.65,9.54-1.65,3.24,0,5.76.79,7.54,2.38,1.78,1.59,2.68,4.01,2.68,7.25s-.89,5.56-2.68,7.15c-1.79,1.59-4.3,2.42-7.54,2.48-3.05.07-6.25-.44-9.59-1.51-3.34-1.07-6.54-2.03-9.59-2.87l-.1,19.47c0,3.38-.89,5.94-2.68,7.69-1.79,1.75-4.17,2.63-7.15,2.63Z"/>
    <path class="cls-1" d="m233.27,119.09c-4.8,0-8.55-1.3-11.24-3.89-2.69-2.59-4.04-6.23-4.04-10.9s1.56-8.06,4.67-10.17c3.11-2.11,7.11-3.16,11.97-3.16,2.85,0,5.45.19,7.79.58,2.34.39,4.44.94,6.33,1.65h.29v-1.46c0-1.49-.55-2.68-1.65-3.55-1.1-.88-2.5-1.28-4.19-1.22-1.62,0-3,.1-4.14.29-1.14.19-2.55.52-4.23.97-3.11.78-5.81.72-8.08-.19-2.27-.91-3.83-2.69-4.67-5.35-.78-2.79-.6-5.13.54-7.01,1.13-1.88,2.87-3.34,5.21-4.38,2.01-.97,4.27-1.78,6.77-2.43,2.5-.65,5.21-.97,8.13-.97,8.5,0,14.75,2.06,18.74,6.18,3.99,4.12,5.99,11.02,5.99,20.68v15.09c0,2.66-.81,4.87-2.43,6.62-1.62,1.75-3.86,2.63-6.72,2.63-3.11,0-5.44-.88-6.96-2.63-1.53-1.75-2.29-3.89-2.29-6.42v-2.24h-1.95c0,1.69-.31,3.41-.92,5.16-.62,1.75-1.88,3.21-3.8,4.38-1.91,1.17-4.95,1.75-9.1,1.75Zm.97-21.32c0,1.1.4,1.88,1.22,2.34.81.45,2.58.68,5.31.68,2.46,0,4.19-.23,5.16-.68.97-.45,1.46-1.23,1.46-2.34,0-1.04-.49-1.77-1.46-2.19-.97-.42-2.69-.63-5.16-.63-2.73,0-4.49.21-5.31.63-.81.42-1.22,1.15-1.22,2.19Z"/>
    <path class="cls-1" d="m306.27,119.09c-3.25,0-5.86-.68-7.84-2.04-1.98-1.36-3.42-3.16-4.33-5.4-.91-2.24-1.43-4.66-1.56-7.25h-1.85v5.45c0,2.66-.81,4.87-2.43,6.62-1.62,1.75-3.86,2.63-6.72,2.63s-5.24-.88-6.77-2.63c-1.53-1.75-2.29-3.96-2.29-6.62v-56.07c0-2.79.75-5.11,2.24-6.96,1.49-1.85,3.76-2.77,6.81-2.77s5.34.92,6.86,2.77c1.52,1.85,2.29,4.11,2.29,6.77v29.49l.39.1c.65-2.73,1.48-5.22,2.48-7.5,1.01-2.27,2.51-4.09,4.53-5.45,2.01-1.36,4.8-2.04,8.37-2.04,5.51,0,9.73,2.26,12.65,6.76,2.92,4.51,4.38,10.53,4.38,18.06,0,8.63-1.48,15.14-4.43,19.52-2.95,4.38-7.22,6.57-12.8,6.57Zm-15.77-26.87c0,.33.02.63.05.92.03.29.08.6.15.93.32,1.36,1.12,2.38,2.38,3.07s3.26,1.02,5.99,1.02c3.24,0,5.47-.49,6.67-1.46,1.2-.97,1.8-2.46,1.8-4.48s-.58-3.6-1.75-4.57-3.38-1.46-6.62-1.46c-2.79,0-4.82.34-6.08,1.02-1.27.68-2.06,1.74-2.38,3.16-.07.26-.11.53-.15.83-.03.29-.05.63-.05,1.02Z"/>
    <path class="cls-1" d="m327.49,56.89c0-2.79.86-5.05,2.58-6.76,1.72-1.72,4.1-2.58,7.15-2.58,3.24,0,5.66.84,7.25,2.53,1.59,1.69,2.38,3.93,2.38,6.72s-.79,4.92-2.38,6.57c-1.59,1.65-4.01,2.48-7.25,2.48s-5.6-.83-7.25-2.48c-1.65-1.66-2.48-3.81-2.48-6.47Zm9.73,62.2c-3.05,0-5.32-.84-6.81-2.53-1.49-1.69-2.24-3.8-2.24-6.33v-33.29c0-2.79.75-5,2.24-6.62,1.49-1.62,3.76-2.43,6.81-2.43s5.34.81,6.86,2.43c1.52,1.62,2.29,3.76,2.29,6.42v33.48c0,2.53-.8,4.64-2.38,6.33-1.59,1.69-3.84,2.53-6.77,2.53Z"/>
    <path class="cls-1" d="m366.13,119.09c-4.8,0-8.55-1.3-11.24-3.89-2.69-2.59-4.04-6.23-4.04-10.9s1.56-8.06,4.67-10.17c3.11-2.11,7.11-3.16,11.97-3.16,2.85,0,5.45.19,7.79.58,2.34.39,4.44.94,6.33,1.65h.29v-1.46c0-1.49-.55-2.68-1.65-3.55-1.1-.88-2.5-1.28-4.19-1.22-1.62,0-3,.1-4.14.29-1.14.19-2.55.52-4.23.97-3.11.78-5.81.72-8.08-.19-2.27-.91-3.83-2.69-4.67-5.35-.78-2.79-.6-5.13.54-7.01,1.13-1.88,2.87-3.34,5.21-4.38,2.01-.97,4.27-1.78,6.77-2.43,2.5-.65,5.21-.97,8.13-.97,8.5,0,14.75,2.06,18.74,6.18,3.99,4.12,5.99,11.02,5.99,20.68v15.09c0,2.66-.81,4.87-2.43,6.62-1.62,1.75-3.86,2.63-6.72,2.63-3.11,0-5.44-.88-6.96-2.63-1.53-1.75-2.29-3.89-2.29-6.42v-2.24h-1.95c0,1.69-.31,3.41-.92,5.16-.62,1.75-1.88,3.21-3.8,4.38-1.91,1.17-4.95,1.75-9.1,1.75Zm2.73-65.7c1.82-1.1,3.63-2.16,5.45-3.16,1.82-1.01,3.93-2.19,6.33-3.55,2.47-1.36,4.83-1.83,7.11-1.41,2.27.42,3.93,1.83,4.96,4.23,1.1,2.4,1.27,4.56.49,6.47-.78,1.91-2.5,3.42-5.16,4.53-2.34.97-4.95,1.88-7.84,2.73-2.89.84-5.34,1.43-7.35,1.75-1.56.26-3.02.11-4.38-.44s-2.37-1.67-3.02-3.36c-.58-1.69-.55-3.18.1-4.48.65-1.3,1.75-2.4,3.31-3.31Zm-1.75,44.39c0,1.1.4,1.88,1.22,2.34.81.45,2.58.68,5.31.68,2.46,0,4.19-.23,5.16-.68.97-.45,1.46-1.23,1.46-2.34,0-1.04-.49-1.77-1.46-2.19-.97-.42-2.69-.63-5.16-.63-2.73,0-4.49.21-5.31.63-.81.42-1.22,1.15-1.22,2.19Z"/>
    <path class="cls-1" d="m414.8,119.09c-2.86,0-5.14-.86-6.86-2.58-1.72-1.72-2.58-3.85-2.58-6.38v-32.22c0-2.73.81-5.03,2.43-6.91,1.62-1.88,3.96-2.82,7.01-2.82s5.26.94,6.81,2.82,2.34,4.25,2.34,7.11v4.87h1.75c0-3.7.66-6.62,2-8.76,1.33-2.14,3.03-3.68,5.11-4.62,2.08-.94,4.15-1.41,6.23-1.41,5,0,8.66,1.8,11,5.4s3.5,8.71,3.5,15.33v21.22c0,2.53-.84,4.66-2.53,6.38-1.69,1.72-3.96,2.58-6.81,2.58s-5.24-.86-6.96-2.58c-1.72-1.72-2.58-3.85-2.58-6.38v-17.23c0-2.34-.44-4.15-1.31-5.45-.88-1.3-2.16-1.95-3.85-1.95-1.95,0-3.36.71-4.23,2.14-.88,1.43-1.31,3.25-1.31,5.45v17.03c0,2.53-.81,4.66-2.43,6.38-1.62,1.72-3.86,2.58-6.72,2.58Z"/>
  </g>
  <g>
    <path class="cls-1" d="m506.85,48.64c8.11,0,14.74,1.52,19.89,4.55,5.15,3.03,8.96,7.33,11.45,12.88,2.49,5.56,3.73,12.15,3.73,19.79,0,12.82-2.76,22.23-8.28,28.22-5.52,6-13.98,9-25.36,9h-4.5c-3.34,0-6.44-.34-9.31-1.02-2.86-.68-5.39-1.93-7.57-3.73-2.18-1.81-3.89-4.35-5.11-7.62-1.23-3.27-1.84-7.5-1.84-12.68,0-4.84.66-9.03,1.99-12.58,1.33-3.54,2.91-6.37,4.76-8.49,1.84-2.11,3.51-3.41,5.01-3.89l-.51-1.94h-1.74c-3.14,0-5.61-1-7.41-3.02-1.81-2.01-2.74-4.72-2.81-8.13-.07-3.41.83-6.15,2.71-8.23,1.87-2.08,4.38-3.12,7.52-3.12h17.38Zm-7.36,48.06c0,1.43.32,2.42.97,2.96.65.55,1.62.82,2.91.82h5.52c3.48,0,6.17-.75,8.08-2.25,1.91-1.5,3.25-3.43,4.04-5.78.78-2.35,1.18-4.86,1.18-7.52s-.39-5.22-1.18-7.67c-.78-2.45-2.13-4.46-4.04-6.03-1.91-1.57-4.6-2.35-8.08-2.35h-5.52c-1.3,0-2.27.29-2.91.87-.65.58-.97,1.62-.97,3.12v23.83Z"/>
    <path class="cls-1" d="m545.81,96.49c0-5.39,1.07-10.12,3.22-14.21,2.15-4.09,5.22-7.29,9.2-9.61,3.99-2.32,8.74-3.48,14.27-3.48,4.29,0,8.16.79,11.61,2.35,3.44,1.57,6.15,3.67,8.13,6.29,1.98,2.63,2.97,5.51,2.97,8.64s-.96,5.59-2.86,6.95c-1.91,1.36-4.74,2.05-8.49,2.05h-21.47c0,1.77.7,3.24,2.1,4.4,1.4,1.16,3.77,1.74,7.11,1.74,1.7,0,3.29-.17,4.76-.51,1.46-.34,2.97-.66,4.5-.97,1.53-.31,3.25-.46,5.16-.46,2.73,0,4.98.97,6.75,2.91,1.77,1.94,2.66,4.62,2.66,8.03,0,4.02-2.06,7.16-6.19,9.41-4.13,2.25-9.53,3.38-16.21,3.38-4.7,0-9.12-.92-13.24-2.76-4.12-1.84-7.48-4.75-10.07-8.74-2.59-3.99-3.89-9.12-3.89-15.39Zm33.13-4.4c1.02,0,1.36-.48,1.02-1.43-.27-.95-1.09-1.94-2.45-2.96-1.36-1.02-3.34-1.53-5.93-1.53-3,0-5.23.65-6.7,1.94-1.47,1.3-2.2,2.63-2.2,3.99h16.26Z"/>
    <path class="cls-1" d="m625.78,124.41c-4.7,0-9.05-.46-13.04-1.38-3.99-.92-7.18-2.39-9.56-4.4-2.39-2.01-3.58-4.69-3.58-8.03,0-2.93.89-5.35,2.66-7.26,1.77-1.91,4.12-2.86,7.06-2.86,1.84,0,3.7.29,5.57.87,1.87.58,3.87,1.14,5.98,1.69,2.11.55,4.4.82,6.85.82,2.18,0,3.65-.12,4.4-.36.75-.24,1.13-.7,1.13-1.38,0-.82-.46-1.36-1.38-1.64-.92-.27-2.47-.61-4.65-1.02l-7.36-1.43c-3.07-.61-6.05-1.41-8.95-2.4-2.9-.99-5.28-2.47-7.16-4.45-1.88-1.98-2.81-4.67-2.81-8.08,0-4.63,2.06-8.25,6.19-10.84,4.12-2.59,10.11-3.89,17.95-3.89,4.5,0,8.54.44,12.12,1.33,3.58.89,6.42,2.2,8.54,3.94,2.11,1.74,3.17,3.9,3.17,6.49.07,2.8-.68,5.05-2.25,6.75-1.57,1.71-3.55,2.56-5.93,2.56-1.71,0-3.43-.22-5.16-.66-1.74-.44-3.61-.92-5.62-1.43-2.01-.51-4.31-.8-6.9-.87-1.84-.14-3.34-.03-4.5.31-1.16.34-1.74.89-1.74,1.64,0,.82.68,1.38,2.05,1.69,1.36.31,3.41.7,6.14,1.18l7.26,1.33c4.43.75,7.96,1.69,10.58,2.81,2.62,1.12,4.52,2.68,5.68,4.65,1.16,1.98,1.74,4.7,1.74,8.18s-1.04,6.63-3.12,9.05c-2.08,2.42-4.96,4.21-8.64,5.37-3.68,1.16-7.91,1.74-12.68,1.74Z"/>
    <path class="cls-1" d="m653.8,57.74c0-2.93.9-5.3,2.71-7.11,1.81-1.81,4.31-2.71,7.52-2.71,3.41,0,5.95.89,7.62,2.66,1.67,1.77,2.51,4.13,2.51,7.06s-.84,5.16-2.51,6.9c-1.67,1.74-4.21,2.61-7.62,2.61s-5.88-.87-7.62-2.61c-1.74-1.74-2.61-4-2.61-6.8Zm10.23,65.34c-3.2,0-5.59-.89-7.16-2.66-1.57-1.77-2.35-3.99-2.35-6.65v-34.97c0-2.93.78-5.25,2.35-6.95,1.57-1.7,3.95-2.56,7.16-2.56s5.61.85,7.21,2.56c1.6,1.71,2.4,3.95,2.4,6.75v35.18c0,2.66-.84,4.88-2.51,6.65-1.67,1.77-4.04,2.66-7.11,2.66Z"/>
    <path class="cls-1" d="m703.09,144.15c-4.16,0-7.69-.44-10.58-1.33-2.9-.89-5.68-2.25-8.33-4.09-2.32-1.64-3.95-3.92-4.91-6.85-.96-2.93-.48-5.9,1.43-8.9,1.23-1.84,2.61-3.1,4.14-3.78,1.53-.68,3.03-.97,4.5-.87,1.46.1,2.74.43,3.83.97,2.39,1.16,4.24,1.99,5.57,2.51s2.85.77,4.55.77c2.52,0,4.65-.89,6.39-2.66,1.74-1.77,2.61-4.26,2.61-7.46v-8.28h-1.84c-.48,3.61-1.86,6.46-4.14,8.54-2.28,2.08-5.4,3.12-9.36,3.12-3,0-5.93-.75-8.79-2.25-2.86-1.5-5.22-3.89-7.06-7.16s-2.76-7.6-2.76-12.99c0-7.91,1.74-13.8,5.22-17.69s7.98-5.83,13.5-5.83c3.82,0,7.09,1.28,9.82,3.83,2.73,2.56,4.09,6.12,4.09,10.69l.31-.1v-5.73c0-2.39.77-4.48,2.3-6.29s3.94-2.71,7.21-2.71c3.48,0,5.98.9,7.52,2.71s2.3,3.9,2.3,6.29l.1,32.21c.07,7.09-.8,13.12-2.61,18.1-1.81,4.98-4.74,8.76-8.79,11.35-4.06,2.59-9.46,3.89-16.21,3.89Zm-7.57-52.46c0,3.68,2.45,5.52,7.36,5.52,3.2,0,5.45-.44,6.75-1.33,1.29-.89,1.94-2.28,1.94-4.19s-.66-3.34-1.99-4.09-3.6-1.12-6.8-1.12c-2.32,0-4.11.37-5.37,1.12-1.26.75-1.89,2.11-1.89,4.09Z"/>
    <path class="cls-1" d="m745.83,123.08c-3,0-5.4-.9-7.21-2.71-1.81-1.81-2.71-4.04-2.71-6.7v-33.85c0-2.86.85-5.28,2.56-7.26,1.7-1.98,4.16-2.97,7.36-2.97s5.52.99,7.16,2.97,2.45,4.47,2.45,7.46v5.11h1.84c0-3.89.7-6.95,2.1-9.2,1.4-2.25,3.19-3.87,5.37-4.86,2.18-.99,4.36-1.48,6.54-1.48,5.25,0,9.1,1.89,11.56,5.67s3.68,9.15,3.68,16.11v22.29c0,2.66-.89,4.89-2.66,6.7-1.77,1.81-4.16,2.71-7.16,2.71s-5.51-.9-7.31-2.71c-1.81-1.81-2.71-4.04-2.71-6.7v-18.1c0-2.46-.46-4.36-1.38-5.73-.92-1.36-2.27-2.04-4.04-2.04-2.05,0-3.53.75-4.45,2.25-.92,1.5-1.38,3.41-1.38,5.73v17.9c0,2.66-.85,4.89-2.56,6.7-1.7,1.81-4.06,2.71-7.06,2.71Z"/>
  </g>
</svg>